<svg xmlns="http://www.w3.org/2000/svg" xmlns:xlink="http://www.w3.org/1999/xlink" width="312" zoomAndPan="magnify" viewBox="0 0 234 56.999997" height="76" preserveAspectRatio="xMidYMid meet" version="1.2"><defs><clipPath id="d8717fbf01"><path d="M 0 11 L 234 11 L 234 45.480469 L 0 45.480469 Z M 0 11 "/></clipPath></defs><g id="e74ec4dd26"><g clip-rule="nonzero" clip-path="url(#d8717fbf01)"><path style=" stroke:none;fill-rule:nonzero;fill:#2770a5;fill-opacity:1;" d="M 83.957031 11.179688 C 79.183594 11.285156 75.167969 12.335938 72.601562 15.042969 C 70.792969 16.949219 69.855469 19.609375 69.835938 22.992188 C 62.027344 20.203125 52.523438 18.199219 42.730469 17.117188 C 27.648438 15.449219 12.011719 15.960938 1.1875 19.457031 C 1.039062 19.503906 0.90625 19.578125 0.789062 19.679688 C 0.667969 19.777344 0.574219 19.898438 0.503906 20.035156 C 0.433594 20.171875 0.390625 20.320312 0.378906 20.472656 C 0.367188 20.628906 0.386719 20.777344 0.433594 20.925781 C 0.480469 21.074219 0.558594 21.207031 0.65625 21.324219 C 0.757812 21.441406 0.878906 21.535156 1.019531 21.605469 C 1.160156 21.675781 1.304688 21.714844 1.460938 21.726562 C 1.617188 21.742188 1.769531 21.722656 1.917969 21.675781 C 12.160156 18.367188 27.621094 17.796875 42.46875 19.4375 C 52.511719 20.546875 62.246094 22.699219 69.964844 25.5625 C 70.042969 26.222656 70.148438 26.90625 70.285156 27.613281 C 71.339844 33.085938 72.96875 36.433594 74.933594 38.3125 C 76.898438 40.1875 79.367188 40.410156 81.144531 39.421875 C 82.921875 38.4375 84.0625 36.484375 84.167969 34.328125 C 84.273438 32.171875 83.234375 29.792969 80.769531 28.175781 C 78.363281 26.597656 75.433594 25.171875 72.1875 23.882812 C 72.019531 20.503906 72.832031 18.207031 74.316406 16.640625 C 76.242188 14.613281 79.558594 13.609375 84.007812 13.511719 C 92.910156 13.316406 105.914062 16.757812 118.964844 20.59375 C 132.015625 24.433594 145.128906 28.640625 154.75 29.863281 C 159.5625 30.472656 163.535156 30.40625 166.351562 28.851562 C 167.761719 28.074219 168.84375 26.859375 169.375 25.296875 C 169.589844 24.660156 169.695312 23.960938 169.742188 23.226562 C 175.210938 22.910156 181.609375 22.054688 188.386719 21.792969 C 196.269531 21.488281 204.539062 22.035156 212.058594 25.222656 C 219.578125 28.40625 226.394531 34.195312 231.492188 44.660156 C 231.558594 44.800781 231.652344 44.921875 231.769531 45.023438 C 231.886719 45.125 232.015625 45.203125 232.164062 45.253906 C 232.3125 45.304688 232.464844 45.324219 232.621094 45.316406 C 232.773438 45.308594 232.921875 45.269531 233.0625 45.203125 C 233.203125 45.136719 233.328125 45.042969 233.429688 44.929688 C 233.535156 44.8125 233.613281 44.683594 233.664062 44.535156 C 233.714844 44.390625 233.738281 44.238281 233.726562 44.085938 C 233.71875 43.929688 233.679688 43.785156 233.613281 43.644531 C 228.304688 32.746094 220.984375 26.464844 212.984375 23.074219 C 204.984375 19.683594 196.347656 19.152344 188.292969 19.460938 C 181.382812 19.730469 174.945312 20.582031 169.640625 20.890625 C 169.585938 20.507812 169.53125 20.121094 169.445312 19.714844 C 168.390625 14.757812 164.261719 12.464844 160.703125 12.289062 C 158.921875 12.199219 157.234375 12.574219 155.980469 13.503906 C 154.726562 14.429688 154.035156 16.144531 154.617188 17.839844 C 155.394531 20.109375 157.128906 21.628906 159.300781 22.425781 C 161.476562 23.222656 164.097656 23.417969 167.082031 23.363281 C 167.171875 23.363281 167.28125 23.351562 167.375 23.347656 C 167.328125 23.792969 167.257812 24.207031 167.140625 24.554688 C 166.792969 25.585938 166.1875 26.273438 165.207031 26.8125 C 163.246094 27.894531 159.652344 28.132812 155.050781 27.546875 C 145.839844 26.378906 132.722656 22.203125 119.632812 18.359375 C 106.546875 14.511719 93.507812 10.96875 83.957031 11.179688 Z M 160.585938 14.617188 C 163.273438 14.75 166.308594 16.269531 167.144531 20.195312 C 167.203125 20.488281 167.238281 20.75 167.277344 21.019531 C 167.203125 21.019531 167.113281 21.03125 167.039062 21.03125 C 164.195312 21.082031 161.816406 20.859375 160.117188 20.234375 C 158.417969 19.613281 157.402344 18.710938 156.84375 17.085938 C 156.546875 16.214844 156.746094 15.847656 157.390625 15.371094 C 158.03125 14.898438 159.242188 14.550781 160.585938 14.617188 Z M 72.492188 26.519531 C 75.15625 27.632812 77.511719 28.835938 79.472656 30.125 C 81.335938 31.347656 81.886719 32.835938 81.816406 34.21875 C 81.75 35.597656 80.953125 36.855469 79.996094 37.386719 C 79.035156 37.917969 77.96875 37.972656 76.570312 36.632812 C 75.167969 35.292969 73.601562 32.375 72.597656 27.171875 C 72.550781 26.945312 72.53125 26.742188 72.492188 26.519531 Z M 72.492188 26.519531 "/></g></g></svg>