<svg xmlns="http://www.w3.org/2000/svg" xmlns:xlink="http://www.w3.org/1999/xlink" width="312" zoomAndPan="magnify" viewBox="0 0 234 56.999997" height="76" preserveAspectRatio="xMidYMid meet" version="1.2"><defs><clipPath id="4b26885506"><path d="M 28.609375 13 L 205.714844 13 L 205.714844 35 L 28.609375 35 Z M 28.609375 13 "/></clipPath><clipPath id="4bcf124dcb"><path d="M 67 44 L 76 44 L 76 55.316406 L 67 55.316406 Z M 67 44 "/></clipPath><clipPath id="ccb9d7deec"><path d="M 73 1.285156 L 96 1.285156 L 96 23 L 73 23 Z M 73 1.285156 "/></clipPath></defs><g id="f01dea7c92"><g clip-rule="nonzero" clip-path="url(#4b26885506)"><path style=" stroke:none;fill-rule:nonzero;fill:#2770a5;fill-opacity:1;" d="M 205.386719 17.140625 C 205.386719 17.15625 205.386719 17.175781 205.382812 17.191406 C 205.367188 17.273438 205.328125 17.335938 205.261719 17.386719 C 205.195312 17.433594 205.121094 17.449219 205.039062 17.4375 C 186.042969 14.273438 169.410156 13.347656 154.191406 14.613281 C 144.652344 15.40625 135.773438 18.816406 127.1875 22.109375 C 122.703125 23.828125 118.058594 25.613281 113.339844 27.019531 C 99.421875 31.171875 85.894531 33.601562 73.128906 34.238281 C 68.707031 34.460938 62.917969 34.625 57.308594 33.949219 C 51.28125 33.222656 46.375 31.667969 42.320312 29.195312 C 40.683594 28.84375 36.847656 29.519531 33.535156 30.742188 C 31.582031 31.464844 29.851562 31.316406 29.125 30.375 C 28.613281 29.699219 28.695312 28.765625 29.371094 27.808594 C 30.085938 26.792969 32.464844 26.640625 36.644531 27.339844 C 39.585938 27.828125 42.382812 28.585938 42.507812 28.625 L 42.515625 28.625 L 42.554688 28.636719 L 42.582031 28.65625 L 42.597656 28.664062 C 51.253906 33.957031 62.871094 34.152344 73.097656 33.640625 C 85.816406 33.007812 99.296875 30.585938 113.167969 26.445312 C 117.867188 25.042969 122.496094 23.265625 126.976562 21.546875 C 135.597656 18.238281 144.515625 14.816406 154.144531 14.015625 C 169.410156 12.75 186.09375 13.671875 205.140625 16.847656 C 205.304688 16.875 205.386719 16.972656 205.386719 17.140625 Z M 29.394531 29.375 C 29.386719 29.609375 29.457031 29.824219 29.597656 30.007812 C 30.058594 30.609375 31.390625 30.894531 33.324219 30.179688 C 35.554688 29.359375 37.96875 28.789062 39.871094 28.585938 C 35.730469 27.648438 30.703125 26.957031 29.859375 28.15625 C 29.550781 28.59375 29.394531 29.015625 29.394531 29.375 Z M 29.394531 29.375 "/></g><path style=" stroke:none;fill-rule:nonzero;fill:#2770a5;fill-opacity:1;" d="M 42.511719 28.804688 C 42.511719 28.933594 42.453125 29.027344 42.332031 29.078125 C 42.210938 29.128906 42.101562 29.113281 42.007812 29.023438 C 39.960938 27.105469 32.714844 24.289062 30.605469 24.59375 C 30.398438 24.625 30.292969 24.679688 30.265625 24.726562 C 30.167969 24.882812 30.148438 25.046875 30.210938 25.21875 C 30.453125 25.957031 31.855469 26.710938 32.375 26.941406 C 32.449219 26.972656 32.5 27.03125 32.527344 27.105469 C 32.558594 27.183594 32.554688 27.257812 32.523438 27.332031 C 32.492188 27.40625 32.4375 27.460938 32.359375 27.492188 C 32.285156 27.523438 32.207031 27.519531 32.132812 27.488281 C 31.917969 27.394531 30.003906 26.53125 29.640625 25.402344 C 29.523438 25.058594 29.558594 24.734375 29.746094 24.425781 C 29.878906 24.199219 30.140625 24.054688 30.519531 24 C 32.785156 23.671875 40.234375 26.542969 42.414062 28.585938 C 42.480469 28.644531 42.511719 28.714844 42.511719 28.804688 Z M 42.511719 28.804688 "/><path style=" stroke:none;fill-rule:nonzero;fill:#2770a5;fill-opacity:1;" d="M 43.070312 29.496094 L 42.488281 29.175781 C 42.171875 29.003906 34.699219 24.902344 33.976562 22.175781 C 33.828125 21.617188 34.007812 21.296875 34.179688 21.128906 C 34.53125 20.789062 35.164062 20.746094 36.011719 20.996094 C 37.265625 21.371094 38.734375 22.320312 39.941406 23.535156 C 40.996094 24.59375 42.363281 26.375 42.925781 28.847656 Z M 34.523438 21.785156 C 34.523438 21.863281 34.535156 21.945312 34.558594 22.019531 C 35.054688 23.902344 39.75 26.921875 42.160156 28.304688 C 41.039062 24.628906 37.863281 22.175781 35.839844 21.570312 C 35.132812 21.359375 34.734375 21.425781 34.601562 21.558594 C 34.542969 21.621094 34.515625 21.699219 34.523438 21.785156 Z M 34.523438 21.785156 "/><path style=" stroke:none;fill-rule:nonzero;fill:#2770a5;fill-opacity:1;" d="M 42.933594 29.222656 C 42.933594 29.261719 42.925781 29.296875 42.910156 29.332031 C 41.761719 32.210938 35.535156 35.078125 33.160156 34.34375 C 32.324219 34.089844 31.984375 33.425781 32.195312 32.484375 C 33.089844 28.5 42.246094 28.605469 42.636719 28.613281 C 42.71875 28.613281 42.789062 28.644531 42.84375 28.703125 C 42.902344 28.761719 42.933594 28.832031 42.933594 28.914062 C 42.871094 29.015625 42.871094 29.117188 42.933594 29.21875 Z M 32.734375 32.996094 C 32.734375 33.511719 33.046875 33.683594 33.332031 33.765625 C 35.390625 34.410156 41.179688 31.71875 42.3125 29.210938 C 40.839844 29.226562 39.378906 29.359375 37.925781 29.605469 C 35.804688 29.988281 33.1875 30.820312 32.78125 32.617188 C 32.75 32.742188 32.734375 32.871094 32.734375 33 Z M 32.734375 32.996094 "/><path style=" stroke:none;fill-rule:nonzero;fill:#2770a5;fill-opacity:1;" d="M 63.507812 33.964844 C 63.507812 34.121094 63.433594 34.21875 63.277344 34.257812 C 63.125 34.292969 63.011719 34.238281 62.941406 34.097656 C 62.902344 34.027344 59.273438 26.816406 55.863281 25.3125 C 55.1875 25.191406 54.519531 25.023438 53.863281 24.8125 C 52.386719 24.328125 51.613281 23.757812 51.492188 23.078125 C 51.398438 22.546875 51.679688 22.097656 52.207031 21.933594 C 53.09375 21.65625 54.945312 22.199219 56.175781 24.796875 C 59.761719 26.449219 63.324219 33.527344 63.476562 33.832031 C 63.5 33.871094 63.507812 33.917969 63.507812 33.964844 Z M 52.074219 22.878906 C 52.074219 22.910156 52.078125 22.941406 52.085938 22.976562 C 52.203125 23.65625 53.9375 24.289062 55.40625 24.613281 C 54.410156 22.847656 53.054688 22.296875 52.382812 22.507812 C 52.175781 22.570312 52.074219 22.695312 52.074219 22.878906 Z M 52.074219 22.878906 "/><path style=" stroke:none;fill-rule:nonzero;fill:#2770a5;fill-opacity:1;" d="M 58.394531 25.347656 C 58.394531 25.691406 58.308594 26 58.109375 26.222656 C 58.054688 26.28125 57.984375 26.316406 57.902344 26.320312 C 57.824219 26.324219 57.75 26.300781 57.6875 26.246094 C 57.675781 26.257812 57.660156 26.269531 57.648438 26.277344 C 57.574219 26.320312 57.5 26.332031 57.417969 26.3125 C 57.339844 26.292969 57.277344 26.246094 57.234375 26.175781 C 57.089844 25.9375 55.832031 23.804688 56.082031 22.5625 C 56.15625 22.1875 56.398438 22.113281 56.5 22.097656 C 57.003906 22.023438 57.527344 22.847656 57.789062 23.347656 C 58.125 23.976562 58.394531 24.726562 58.394531 25.347656 Z M 57.695312 25.777344 C 57.824219 25.585938 57.828125 25.203125 57.695312 24.714844 C 57.46875 23.855469 56.941406 23.023438 56.65625 22.765625 C 56.558594 23.609375 57.324219 25.136719 57.695312 25.777344 Z M 57.695312 25.777344 "/><path style=" stroke:none;fill-rule:nonzero;fill:#2770a5;fill-opacity:1;" d="M 58.667969 26.835938 C 58.667969 26.941406 58.625 27.023438 58.539062 27.082031 C 56.96875 28.167969 55.003906 28.226562 54.421875 27.550781 C 54.316406 27.425781 54.007812 26.96875 54.589844 26.351562 C 55.835938 25.03125 58.136719 26.238281 58.234375 26.289062 C 58.300781 26.480469 58.425781 26.605469 58.617188 26.664062 C 58.652344 26.714844 58.671875 26.773438 58.667969 26.835938 Z M 54.847656 27.074219 C 54.847656 27.105469 54.859375 27.136719 54.878906 27.160156 C 55.171875 27.503906 56.582031 27.542969 57.878906 26.789062 C 57.519531 26.617188 55.859375 25.886719 55.023438 26.765625 C 54.9375 26.863281 54.847656 26.980469 54.847656 27.078125 Z M 54.847656 27.074219 "/><path style=" stroke:none;fill-rule:nonzero;fill:#2770a5;fill-opacity:1;" d="M 69.628906 34.164062 C 69.628906 34.246094 69.597656 34.316406 69.542969 34.375 C 69.289062 34.632812 63.3125 40.746094 58.667969 41.15625 C 53.992188 41.570312 50.871094 43.5 50.433594 44.464844 C 49.316406 47.019531 47.1875 48.5625 46.164062 48.132812 C 45.925781 48.035156 45.421875 47.679688 45.871094 46.554688 C 46.742188 44.382812 49.265625 44.089844 49.976562 44.046875 C 50.371094 43.402344 51.386719 42.664062 52.75 42.042969 C 53.949219 41.496094 55.941406 40.792969 58.613281 40.558594 C 63.039062 40.167969 69.050781 34.019531 69.109375 33.953125 C 69.203125 33.859375 69.3125 33.835938 69.4375 33.886719 C 69.5625 33.9375 69.625 34.03125 69.625 34.164062 Z M 46.296875 47.347656 C 46.296875 47.46875 46.328125 47.550781 46.398438 47.578125 C 46.875 47.777344 48.566406 46.847656 49.671875 44.683594 C 48.8125 44.792969 47.058594 45.207031 46.433594 46.777344 C 46.351562 46.957031 46.308594 47.148438 46.296875 47.347656 Z M 46.296875 47.347656 "/><path style=" stroke:none;fill-rule:nonzero;fill:#2770a5;fill-opacity:1;" d="M 63.210938 43.609375 C 63.210938 44.0625 63.113281 44.441406 62.925781 44.671875 C 62.8125 44.808594 62.386719 45.222656 61.660156 44.703125 C 60.074219 43.558594 60.578125 40.363281 60.597656 40.226562 C 60.617188 40.105469 60.683594 40.027344 60.800781 39.988281 C 60.917969 39.953125 61.019531 39.976562 61.105469 40.0625 C 61.164062 40.007812 61.234375 39.976562 61.3125 39.976562 C 61.394531 39.972656 61.464844 40 61.523438 40.054688 C 62.695312 41.125 63.210938 42.570312 63.210938 43.609375 Z M 61.105469 41.523438 C 61.105469 42.453125 61.265625 43.675781 62.011719 44.214844 C 62.335938 44.449219 62.425781 44.335938 62.460938 44.292969 C 62.855469 43.804688 62.566406 41.851562 61.160156 40.535156 C 61.125 40.863281 61.105469 41.191406 61.105469 41.523438 Z M 61.105469 41.523438 "/><path style=" stroke:none;fill-rule:nonzero;fill:#2770a5;fill-opacity:1;" d="M 53.140625 42.332031 C 53.140625 42.453125 53.089844 42.542969 52.980469 42.597656 C 52.929688 42.625 52.875 42.636719 52.816406 42.632812 C 52.746094 42.734375 52.652344 42.78125 52.527344 42.765625 C 52.449219 42.753906 51.683594 42.625 49.152344 41.300781 C 48.128906 40.765625 48.101562 40.175781 48.140625 39.949219 C 48.203125 39.558594 48.554688 39.265625 49.058594 39.1875 C 50.199219 39.003906 51.886719 39.863281 53.105469 42.195312 C 53.128906 42.238281 53.140625 42.285156 53.140625 42.332031 Z M 48.730469 40.074219 C 48.730469 40.242188 48.941406 40.511719 49.429688 40.769531 C 51.121094 41.652344 51.996094 41.984375 52.371094 42.105469 C 51.183594 40.0625 49.808594 39.675781 49.152344 39.78125 C 48.917969 39.816406 48.753906 39.921875 48.734375 40.046875 C 48.730469 40.054688 48.730469 40.066406 48.730469 40.074219 Z M 48.730469 40.074219 "/><path style=" stroke:none;fill-rule:nonzero;fill:#2770a5;fill-opacity:1;" d="M 90.816406 32.144531 C 90.816406 32.234375 90.785156 32.308594 90.71875 32.367188 C 90.636719 32.441406 82.535156 39.640625 81.171875 41.230469 C 80.464844 42.054688 78.34375 43.609375 76.015625 45.011719 C 74.773438 45.765625 71.757812 47.492188 70.191406 47.601562 C 69.554688 48.070312 66.34375 50.320312 64.988281 48.90625 C 64.550781 48.445312 64.664062 48.066406 64.769531 47.875 C 65.34375 46.867188 68.628906 46.675781 70.113281 47.003906 C 72.390625 46.898438 79.410156 42.359375 80.714844 40.835938 C 82.105469 39.214844 89.984375 32.214844 90.320312 31.917969 C 90.417969 31.832031 90.527344 31.816406 90.644531 31.867188 C 90.761719 31.921875 90.820312 32.011719 90.820312 32.144531 Z M 65.273438 48.234375 C 65.273438 48.285156 65.300781 48.367188 65.421875 48.492188 C 66.15625 49.265625 68.136719 48.242188 69.296875 47.488281 C 67.710938 47.339844 65.582031 47.667969 65.292969 48.171875 C 65.28125 48.191406 65.273438 48.214844 65.273438 48.234375 Z M 65.273438 48.234375 "/><g clip-rule="nonzero" clip-path="url(#4bcf124dcb)"><path style=" stroke:none;fill-rule:nonzero;fill:#2770a5;fill-opacity:1;" d="M 75.890625 44.917969 C 75.890625 44.972656 75.875 45.019531 75.851562 45.0625 C 75.546875 45.621094 72.929688 50.410156 72.183594 51.152344 C 70.4375 54.476562 68.765625 55.292969 67.859375 54.980469 C 67.292969 54.785156 67.03125 54.183594 67.171875 53.410156 C 67.53125 51.507812 71.15625 50.796875 71.804688 50.683594 C 72.324219 50.136719 74.214844 46.820312 75.324219 44.777344 C 75.398438 44.640625 75.511719 44.59375 75.664062 44.632812 C 75.816406 44.667969 75.890625 44.765625 75.890625 44.921875 Z M 67.734375 53.8125 C 67.734375 54.121094 67.847656 54.335938 68.054688 54.414062 C 68.613281 54.605469 69.921875 53.929688 71.375 51.382812 C 70.074219 51.671875 67.980469 52.375 67.765625 53.519531 C 67.746094 53.617188 67.738281 53.714844 67.734375 53.8125 Z M 67.734375 53.8125 "/></g><path style=" stroke:none;fill-rule:nonzero;fill:#2770a5;fill-opacity:1;" d="M 82.292969 46.769531 C 82.292969 47.800781 82.089844 48.484375 81.683594 48.800781 C 81.386719 49.03125 81.003906 49.039062 80.636719 48.828125 C 80.066406 48.496094 79.53125 47.582031 79.660156 46.683594 C 79.964844 44.53125 80.640625 41.015625 80.648438 40.980469 L 80.890625 39.734375 L 81.234375 40.957031 C 81.9375 43.453125 82.292969 45.414062 82.292969 46.769531 Z M 80.242188 46.953125 C 80.242188 47.523438 80.585938 48.101562 80.9375 48.308594 C 81.167969 48.441406 81.28125 48.355469 81.316406 48.324219 C 81.421875 48.238281 82.257812 47.410156 80.996094 42.390625 C 80.769531 43.613281 80.441406 45.449219 80.253906 46.761719 C 80.246094 46.828125 80.242188 46.890625 80.242188 46.953125 Z M 80.242188 46.953125 "/><path style=" stroke:none;fill-rule:nonzero;fill:#2770a5;fill-opacity:1;" d="M 83.640625 38.921875 L 82.828125 39.46875 C 79.617188 41.628906 77.40625 42.390625 76.441406 41.683594 C 76.058594 41.402344 75.925781 40.910156 76.085938 40.375 C 76.273438 39.738281 76.867188 39.070312 77.636719 39.027344 C 79.515625 38.914062 82.628906 38.921875 82.660156 38.921875 Z M 76.617188 40.816406 C 76.609375 40.976562 76.667969 41.105469 76.792969 41.203125 C 76.972656 41.332031 77.996094 41.816406 81.640625 39.527344 C 80.566406 39.535156 78.863281 39.558594 77.671875 39.628906 C 77.199219 39.65625 76.785156 40.117188 76.660156 40.546875 C 76.632812 40.636719 76.617188 40.722656 76.617188 40.816406 Z M 76.617188 40.816406 "/><path style=" stroke:none;fill-rule:nonzero;fill:#2770a5;fill-opacity:1;" d="M 173.183594 8.625 C 173.183594 8.765625 173.117188 8.859375 172.980469 8.90625 C 164.257812 11.929688 157.761719 15.160156 151.917969 19.371094 C 147.527344 22.535156 142.539062 24.574219 138.679688 26 C 131.878906 28.507812 125.570312 29.964844 119.925781 30.332031 C 112.597656 30.808594 106.367188 29.445312 101.402344 26.273438 C 92.457031 20.5625 84.226562 19.054688 78.898438 18.796875 C 73.207031 18.519531 69.542969 19.566406 69.417969 19.601562 C 69.417969 19.601562 69.414062 19.601562 69.410156 19.601562 L 69.378906 19.609375 C 69.378906 19.609375 69.378906 19.609375 69.375 19.609375 C 68.304688 19.777344 62.964844 20.582031 62.109375 20.15625 C 61.144531 19.671875 60.023438 17.8125 60.535156 16.683594 C 60.625 16.484375 60.816406 16.347656 61.101562 16.28125 C 62.640625 15.917969 67.417969 17.488281 69.394531 18.984375 C 70.15625 18.777344 73.652344 17.9375 78.925781 18.191406 C 82.445312 18.371094 85.890625 18.972656 89.261719 19.988281 C 93.535156 21.269531 97.726562 23.210938 101.726562 25.761719 C 112.574219 32.691406 127.699219 29.40625 138.472656 25.433594 C 142.296875 24.023438 147.238281 22 151.570312 18.878906 C 157.460938 14.632812 164.003906 11.378906 172.785156 8.335938 C 172.863281 8.308594 172.941406 8.3125 173.015625 8.347656 C 173.089844 8.386719 173.140625 8.441406 173.167969 8.519531 C 173.179688 8.554688 173.183594 8.589844 173.183594 8.625 Z M 61 17.351562 C 61 18.183594 61.769531 19.320312 62.378906 19.621094 C 62.796875 19.832031 65.714844 19.546875 68.546875 19.132812 C 66.5 17.847656 62.636719 16.664062 61.339844 16.851562 C 61.125 16.882812 61.082031 16.9375 61.082031 16.9375 C 61.023438 17.070312 60.996094 17.207031 61 17.351562 Z M 61 17.351562 "/><path style=" stroke:none;fill-rule:nonzero;fill:#2770a5;fill-opacity:1;" d="M 69.242188 19.375 C 69.242188 19.472656 69.203125 19.550781 69.128906 19.609375 C 68.960938 19.742188 65.019531 22.90625 62.96875 23.320312 C 61.824219 23.554688 61.136719 23.167969 60.761719 22.800781 C 60.246094 22.296875 60.0625 21.570312 60.144531 21.113281 C 60.28125 20.367188 61.699219 19.773438 62.132812 19.609375 C 62.210938 19.578125 62.289062 19.578125 62.367188 19.613281 C 62.441406 19.648438 62.496094 19.703125 62.527344 19.78125 C 62.558594 19.859375 62.554688 19.9375 62.519531 20.015625 C 62.484375 20.089844 62.425781 20.144531 62.347656 20.171875 C 61.609375 20.453125 60.785156 20.945312 60.734375 21.222656 C 60.691406 21.464844 60.800781 22 61.179688 22.371094 C 61.5625 22.742188 62.148438 22.875 62.851562 22.734375 C 64.757812 22.347656 68.714844 19.171875 68.753906 19.140625 C 68.851562 19.0625 68.957031 19.050781 69.070312 19.105469 C 69.183594 19.160156 69.242188 19.25 69.242188 19.375 Z M 69.242188 19.375 "/><path style=" stroke:none;fill-rule:nonzero;fill:#2770a5;fill-opacity:1;" d="M 68.875 18.800781 C 68.875 18.953125 68.800781 19.050781 68.652344 19.089844 C 68.503906 19.128906 68.390625 19.082031 68.316406 18.949219 C 67.308594 17.164062 65.300781 14.488281 64.203125 14.886719 C 63.753906 15.050781 63.46875 15.289062 63.359375 15.59375 C 63.1875 16.066406 63.46875 16.585938 63.46875 16.589844 C 63.515625 16.664062 63.527344 16.742188 63.503906 16.824219 C 63.484375 16.90625 63.4375 16.96875 63.363281 17.011719 C 63.289062 17.050781 63.210938 17.0625 63.128906 17.035156 C 63.046875 17.011719 62.988281 16.964844 62.949219 16.886719 C 62.929688 16.859375 62.523438 16.128906 62.792969 15.386719 C 62.964844 14.910156 63.375 14.550781 63.996094 14.324219 C 65.921875 13.617188 68.539062 18.136719 68.835938 18.652344 C 68.863281 18.699219 68.875 18.746094 68.875 18.800781 Z M 68.875 18.800781 "/><path style=" stroke:none;fill-rule:nonzero;fill:#2770a5;fill-opacity:1;" d="M 69.628906 19.316406 C 69.628906 19.386719 69.605469 19.449219 69.5625 19.503906 C 69.539062 19.53125 67.390625 22.191406 66.015625 23.75 C 65.53125 24.292969 65.050781 24.519531 64.589844 24.425781 C 63.832031 24.261719 63.503906 23.292969 63.46875 23.183594 C 63.445312 23.105469 63.453125 23.03125 63.492188 22.960938 C 63.53125 22.886719 63.585938 22.839844 63.664062 22.816406 C 63.742188 22.792969 63.816406 22.796875 63.886719 22.832031 C 63.960938 22.867188 64.011719 22.921875 64.039062 23 C 64.101562 23.191406 64.359375 23.761719 64.714844 23.835938 C 65.007812 23.898438 65.339844 23.605469 65.566406 23.351562 C 66.9375 21.808594 69.074219 19.15625 69.09375 19.128906 C 69.183594 19.019531 69.292969 18.988281 69.429688 19.035156 C 69.5625 19.082031 69.628906 19.175781 69.628906 19.316406 Z M 69.628906 19.316406 "/><path style=" stroke:none;fill-rule:nonzero;fill:#2770a5;fill-opacity:1;" d="M 88.835938 20.09375 C 88.835938 20.183594 88.800781 20.261719 88.730469 20.320312 C 88.496094 20.523438 82.917969 25.246094 78.457031 24.445312 C 75.847656 24.4375 74.683594 23.554688 74.488281 22.800781 C 74.433594 22.628906 74.4375 22.457031 74.503906 22.289062 C 74.574219 22.121094 74.683594 21.992188 74.84375 21.902344 C 75.121094 21.746094 75.636719 21.699219 77.171875 22.761719 C 77.832031 23.21875 78.425781 23.707031 78.617188 23.867188 C 82.789062 24.566406 88.285156 19.914062 88.339844 19.867188 C 88.4375 19.785156 88.546875 19.769531 88.660156 19.824219 C 88.777344 19.875 88.835938 19.96875 88.835938 20.09375 Z M 75.054688 22.566406 C 75.054688 22.59375 75.058594 22.621094 75.066406 22.644531 C 75.175781 23.058594 75.9375 23.644531 77.578125 23.804688 C 77.363281 23.632812 77.109375 23.449219 76.851562 23.269531 C 75.457031 22.296875 75.140625 22.425781 75.136719 22.425781 C 75.078125 22.457031 75.050781 22.503906 75.054688 22.566406 Z M 75.054688 22.566406 "/><path style=" stroke:none;fill-rule:nonzero;fill:#2770a5;fill-opacity:1;" d="M 81.277344 25.5625 C 81.277344 26.066406 81.15625 26.542969 80.921875 26.988281 C 80.648438 27.492188 80.292969 27.773438 79.945312 27.765625 C 79.804688 27.761719 79.539062 27.699219 79.367188 27.335938 C 78.816406 26.175781 80.003906 24.285156 80.136719 24.070312 C 80.183594 24.003906 80.246094 23.960938 80.328125 23.945312 C 80.410156 23.925781 80.484375 23.941406 80.554688 23.988281 C 80.585938 24.007812 80.617188 24.03125 80.640625 24.066406 C 80.738281 24.070312 80.816406 24.113281 80.871094 24.195312 C 81.152344 24.609375 81.285156 25.066406 81.277344 25.5625 Z M 79.820312 26.628906 C 79.816406 26.785156 79.84375 26.9375 79.90625 27.082031 C 79.941406 27.152344 79.964844 27.167969 79.964844 27.167969 C 80.003906 27.167969 80.191406 27.0625 80.382812 26.71875 C 80.691406 26.160156 80.820312 25.339844 80.464844 24.6875 C 80.191406 25.1875 79.820312 26.003906 79.820312 26.628906 Z M 79.820312 26.628906 "/><path style=" stroke:none;fill-rule:nonzero;fill:#2770a5;fill-opacity:1;" d="M 83.078125 23.320312 C 83.042969 23.410156 83.042969 23.496094 83.078125 23.585938 C 83.070312 23.667969 83.03125 23.738281 82.96875 23.789062 C 82.90625 23.84375 82.832031 23.867188 82.75 23.859375 C 82.703125 23.855469 81.613281 23.746094 80.960938 23.0625 C 80.691406 22.78125 80.730469 22.535156 80.777344 22.417969 C 80.855469 22.210938 81.0625 22.078125 81.339844 22.058594 C 81.855469 22.023438 82.578125 22.351562 83.039062 23.175781 C 83.0625 23.21875 83.078125 23.269531 83.078125 23.320312 Z M 81.402344 22.65625 C 81.652344 22.914062 82.007812 23.066406 82.296875 23.152344 C 82.117188 22.921875 81.882812 22.765625 81.597656 22.683594 C 81.535156 22.664062 81.46875 22.652344 81.402344 22.652344 Z M 81.402344 22.65625 "/><g clip-rule="nonzero" clip-path="url(#ccb9d7deec)"><path style=" stroke:none;fill-rule:nonzero;fill:#2770a5;fill-opacity:1;" d="M 95.800781 22.6875 C 95.800781 22.808594 95.746094 22.898438 95.640625 22.953125 C 95.53125 23.011719 95.429688 23.003906 95.328125 22.933594 C 94.625 22.445312 78.203125 10.992188 76.917969 5.480469 C 76.09375 5.167969 72.988281 3.878906 73.226562 2.34375 C 73.304688 1.855469 73.59375 1.554688 74.023438 1.515625 C 74.992188 1.429688 76.597656 2.84375 77.40625 5.023438 L 77.4375 5.035156 L 77.464844 5.199219 L 77.464844 5.210938 C 78.410156 10.410156 95.492188 22.324219 95.664062 22.441406 C 95.753906 22.5 95.796875 22.582031 95.800781 22.6875 Z M 73.820312 2.519531 C 73.820312 3.269531 75.339844 4.167969 76.636719 4.722656 C 75.875 3.058594 74.660156 2.0625 74.082031 2.113281 C 74.015625 2.121094 73.875 2.132812 73.824219 2.4375 C 73.820312 2.464844 73.820312 2.492188 73.820312 2.519531 Z M 73.820312 2.519531 "/></g><path style=" stroke:none;fill-rule:nonzero;fill:#2770a5;fill-opacity:1;" d="M 82.65625 12.914062 L 82.066406 12.097656 C 81.785156 11.707031 79.347656 8.246094 80.207031 6.875 C 80.519531 6.375 80.867188 6.378906 81.046875 6.425781 C 82.035156 6.679688 82.507812 9.542969 82.609375 11.914062 Z M 80.613281 7.625 C 80.613281 8.410156 81.261719 9.726562 81.9375 10.820312 C 81.871094 9.957031 81.730469 9.109375 81.515625 8.273438 C 81.230469 7.238281 80.949219 7.007812 80.890625 7.003906 C 80.890625 7.003906 80.824219 7.019531 80.714844 7.191406 C 80.640625 7.328125 80.605469 7.472656 80.613281 7.625 Z M 80.613281 7.625 "/><path style=" stroke:none;fill-rule:nonzero;fill:#2770a5;fill-opacity:1;" d="M 89.257812 17.902344 L 88.507812 17.828125 C 87.417969 17.710938 86.339844 17.539062 85.269531 17.3125 C 82.964844 16.808594 81.761719 16.175781 81.613281 15.378906 C 81.550781 15.039062 81.675781 14.765625 81.964844 14.628906 C 83.195312 14.03125 87.910156 16.34375 88.761719 17.332031 Z M 82.199219 15.210938 C 82.199219 15.230469 82.199219 15.25 82.203125 15.265625 C 82.359375 16.085938 85.136719 16.777344 87.527344 17.105469 C 86.132812 16.210938 83.535156 15.101562 82.464844 15.128906 C 82.253906 15.132812 82.207031 15.183594 82.207031 15.183594 C 82.203125 15.191406 82.199219 15.203125 82.199219 15.210938 Z M 82.199219 15.210938 "/><path style=" stroke:none;fill-rule:nonzero;fill:#2770a5;fill-opacity:1;" d="M 93.742188 17.464844 C 93.742188 17.683594 93.734375 17.90625 93.722656 18.113281 C 93.671875 19.023438 93.5 20.25 93.175781 20.714844 C 93.128906 20.785156 93.0625 20.824219 92.980469 20.839844 C 92.898438 20.855469 92.824219 20.839844 92.757812 20.792969 L 92.730469 20.773438 C 92.65625 20.835938 92.570312 20.859375 92.476562 20.839844 C 92.378906 20.816406 92.308594 20.765625 92.265625 20.675781 C 92.210938 20.5625 90.917969 17.871094 92.292969 16 C 92.75 15.378906 93.109375 15.496094 93.285156 15.621094 C 93.644531 15.875 93.742188 16.671875 93.742188 17.464844 Z M 92.738281 20.265625 C 92.890625 19.933594 93.0625 19.136719 93.121094 18.121094 C 93.191406 16.929688 93.0625 16.320312 92.964844 16.148438 C 92.890625 16.210938 92.828125 16.277344 92.777344 16.355469 C 91.78125 17.710938 92.507812 19.710938 92.738281 20.265625 Z M 92.738281 20.265625 "/><path style=" stroke:none;fill-rule:nonzero;fill:#2770a5;fill-opacity:1;" d="M 145.851562 22.785156 C 145.851562 22.875 145.820312 22.949219 145.753906 23.007812 C 145.589844 23.152344 129.382812 37.519531 123.625 42.972656 C 123.554688 43.660156 123.121094 47.117188 121.71875 48.082031 C 121.335938 48.359375 120.921875 48.425781 120.46875 48.289062 C 119.429688 47.996094 119.210938 47.339844 119.171875 46.976562 C 119.039062 45.660156 120.640625 43.894531 123.160156 42.585938 C 128.878906 37.160156 145.183594 22.707031 145.351562 22.558594 C 145.445312 22.472656 145.554688 22.457031 145.671875 22.511719 C 145.789062 22.5625 145.847656 22.65625 145.847656 22.785156 Z M 119.769531 46.820312 C 119.769531 46.851562 119.773438 46.882812 119.773438 46.914062 C 119.8125 47.292969 120.101562 47.5625 120.632812 47.710938 C 120.902344 47.796875 121.152344 47.757812 121.382812 47.589844 C 122.304688 46.957031 122.792969 44.6875 122.976562 43.371094 C 120.84375 44.585938 119.769531 45.972656 119.769531 46.820312 Z M 119.769531 46.820312 "/><path style=" stroke:none;fill-rule:nonzero;fill:#2770a5;fill-opacity:1;" d="M 125.933594 47.230469 C 125.9375 47.433594 125.90625 47.628906 125.832031 47.820312 C 125.675781 48.203125 125.328125 48.398438 124.878906 48.347656 C 123.25 48.171875 123.054688 44.648438 123.039062 43.296875 C 122.582031 43.496094 121.816406 43.8125 121.011719 44.074219 C 119.140625 44.683594 118.113281 44.664062 117.789062 44.011719 C 117.511719 43.460938 117.625 42.816406 118.074219 42.328125 C 118.429688 41.945312 119.863281 40.808594 123.457031 42.265625 C 123.515625 42.289062 123.5625 42.328125 123.597656 42.382812 L 123.652344 42.355469 L 123.644531 42.699219 C 124.777344 43.675781 125.933594 45.875 125.933594 47.230469 Z M 123.644531 43.542969 C 123.695312 45.203125 124.019531 47.652344 124.941406 47.753906 C 125.179688 47.78125 125.242188 47.6875 125.277344 47.59375 C 125.5625 46.898438 124.722656 44.761719 123.644531 43.539062 Z M 118.242188 43.390625 C 118.242188 43.515625 118.269531 43.632812 118.328125 43.746094 C 118.441406 43.972656 119.164062 44.046875 120.828125 43.507812 C 121.671875 43.230469 122.492188 42.886719 122.914062 42.699219 C 120.535156 41.808594 119.085938 42.125 118.519531 42.738281 C 118.339844 42.917969 118.25 43.136719 118.242188 43.386719 Z M 118.242188 43.390625 "/><path style=" stroke:none;fill-rule:nonzero;fill:#2770a5;fill-opacity:1;" d="M 128.3125 38.511719 C 128.3125 38.664062 128.238281 38.761719 128.089844 38.800781 C 127.40625 38.980469 126.714844 39.121094 126.011719 39.214844 C 124.449219 39.417969 123.578125 39.222656 123.355469 38.617188 C 123.214844 38.238281 123.335938 37.859375 123.6875 37.574219 C 124.550781 36.878906 126.703125 36.804688 128.175781 37.757812 C 128.246094 37.800781 128.289062 37.863281 128.304688 37.945312 C 128.324219 38.027344 128.308594 38.101562 128.261719 38.171875 C 128.238281 38.207031 128.210938 38.234375 128.175781 38.257812 C 128.238281 38.296875 128.28125 38.355469 128.300781 38.429688 C 128.308594 38.457031 128.3125 38.484375 128.3125 38.511719 Z M 123.894531 38.3125 C 123.894531 38.34375 123.902344 38.378906 123.914062 38.40625 C 124.097656 38.890625 126.0625 38.71875 127.828125 38.25 C 126.519531 37.421875 124.671875 37.550781 124.054688 38.046875 C 123.925781 38.15625 123.894531 38.242188 123.894531 38.3125 Z M 123.894531 38.3125 "/><path style=" stroke:none;fill-rule:nonzero;fill:#2770a5;fill-opacity:1;" d="M 134.65625 32.777344 C 134.65625 32.90625 134.597656 32.996094 134.484375 33.050781 C 134.382812 33.097656 132.007812 34.179688 131.117188 32.953125 C 130.859375 32.601562 130.871094 32.238281 131.140625 31.980469 C 131.746094 31.410156 133.722656 31.5625 134.546875 32.246094 C 134.679688 32.351562 134.703125 32.480469 134.617188 32.628906 L 134.628906 32.652344 C 134.648438 32.691406 134.65625 32.734375 134.65625 32.777344 Z M 131.53125 32.457031 C 131.539062 32.511719 131.5625 32.5625 131.601562 32.601562 C 132.039062 33.207031 133.347656 32.859375 134.007812 32.601562 C 133.273438 32.15625 131.859375 32.128906 131.550781 32.421875 C 131.539062 32.429688 131.53125 32.441406 131.53125 32.457031 Z M 131.53125 32.457031 "/><path style=" stroke:none;fill-rule:nonzero;fill:#2770a5;fill-opacity:1;" d="M 132.34375 38.3125 C 132.335938 38.648438 132.21875 38.941406 131.988281 39.191406 C 131.652344 39.578125 131.347656 39.585938 131.152344 39.519531 C 130.359375 39.261719 130.109375 37.269531 130.039062 36.425781 L 129.992188 35.882812 L 130.476562 36.132812 C 130.648438 36.21875 132.121094 37.019531 132.320312 38.074219 C 132.335938 38.152344 132.34375 38.230469 132.34375 38.3125 Z M 130.703125 36.980469 C 130.847656 38.003906 131.117188 38.878906 131.339844 38.953125 C 131.347656 38.953125 131.414062 38.941406 131.539062 38.800781 C 131.707031 38.601562 131.769531 38.40625 131.730469 38.191406 C 131.644531 37.738281 131.136719 37.285156 130.703125 36.980469 Z M 130.703125 36.980469 "/><path style=" stroke:none;fill-rule:nonzero;fill:#2770a5;fill-opacity:1;" d="M 142.644531 33.085938 C 142.644531 35.046875 142.222656 36.464844 141.480469 36.996094 C 141.074219 37.289062 140.382812 37.460938 139.410156 36.628906 C 137 34.570312 139.09375 30.128906 140.09375 27.992188 C 140.285156 27.59375 140.480469 27.175781 140.511719 27.039062 C 140.496094 26.898438 140.550781 26.792969 140.679688 26.730469 C 140.71875 26.710938 140.757812 26.703125 140.800781 26.699219 C 140.824219 26.546875 140.910156 26.464844 141.0625 26.445312 C 141.214844 26.429688 141.320312 26.492188 141.378906 26.632812 C 142.15625 28.605469 142.617188 30.898438 142.640625 32.929688 Z M 138.890625 33.886719 C 138.890625 34.796875 139.140625 35.609375 139.800781 36.171875 C 140.34375 36.636719 140.792969 36.75 141.132812 36.507812 C 142.285156 35.683594 142.421875 31.339844 141.023438 27.398438 C 140.949219 27.59375 140.824219 27.859375 140.640625 28.25 C 140 29.609375 138.890625 31.964844 138.890625 33.886719 Z M 138.890625 33.886719 "/></g></svg>