<svg xmlns="http://www.w3.org/2000/svg" xmlns:xlink="http://www.w3.org/1999/xlink" width="312" zoomAndPan="magnify" viewBox="0 0 234 56.999997" height="76" preserveAspectRatio="xMidYMid meet" version="1.2"><defs><clipPath id="10a5613bf3"><path d="M 44.242188 3 L 189.832031 3 L 189.832031 53 L 44.242188 53 Z M 44.242188 3 "/></clipPath><clipPath id="2ea03f26a0"><path d="M 70 1.8125 L 74 1.8125 L 74 6 L 70 6 Z M 70 1.8125 "/></clipPath></defs><g id="77f9cd8e35"><g clip-rule="nonzero" clip-path="url(#10a5613bf3)"><path style=" stroke:none;fill-rule:nonzero;fill:#2770a5;fill-opacity:1;" d="M 168.535156 38.433594 C 167.152344 38.996094 165.894531 39.53125 164.621094 40.015625 C 160.859375 41.4375 156.992188 42.433594 153.011719 43 C 151.363281 43.234375 149.734375 43.652344 148.082031 43.878906 C 146.429688 44.101562 144.800781 44.207031 143.152344 44.328125 C 142.496094 44.371094 141.957031 44.648438 141.542969 45.160156 C 140.292969 46.476562 139.6875 48.074219 139.003906 49.675781 C 138.738281 50.296875 138.347656 50.824219 137.835938 51.261719 C 137.320312 51.695312 136.738281 51.996094 136.082031 52.15625 C 135.589844 52.300781 135.382812 52.179688 135.40625 51.652344 C 135.464844 50.542969 136.046875 49.660156 136.710938 48.851562 C 137.285156 48.164062 137.980469 47.574219 138.617188 46.9375 L 140.9375 44.617188 C 140.808594 44.558594 140.671875 44.515625 140.535156 44.484375 C 137.179688 44.378906 133.824219 44.351562 130.476562 44.144531 C 128.289062 44.011719 126.113281 43.644531 123.9375 43.335938 C 123.308594 43.246094 122.839844 43.265625 122.324219 43.753906 C 121.332031 44.691406 120.261719 45.558594 118.859375 45.886719 C 118.628906 45.988281 118.421875 46.125 118.230469 46.289062 C 117.40625 44.679688 118.480469 43.679688 119.257812 42.449219 C 118.820312 42.597656 118.394531 42.773438 117.980469 42.976562 C 116.527344 43.789062 115.132812 44.730469 113.628906 45.433594 C 112.492188 45.964844 111.21875 46.199219 110.015625 46.589844 C 109.695312 46.660156 109.414062 46.804688 109.171875 47.027344 C 108.351562 48 107.582031 49.015625 106.792969 50.007812 C 106.53125 50.363281 106.222656 50.671875 105.867188 50.929688 C 106.0625 49.285156 107.226562 48.195312 108.121094 46.917969 L 105.820312 46.917969 L 105.757812 46.617188 C 106.164062 46.464844 106.578125 46.355469 107.003906 46.28125 C 108.308594 46.164062 109.597656 46.054688 110.589844 44.953125 L 107.011719 43.503906 C 107.613281 42.957031 108.101562 43.203125 108.5625 43.367188 C 109.429688 43.667969 110.269531 44.046875 111.144531 44.3125 C 111.53125 44.398438 111.914062 44.394531 112.296875 44.296875 C 113.375 44.117188 114.433594 43.859375 115.472656 43.523438 C 116.292969 43.222656 117.019531 42.679688 117.9375 42.15625 C 115.957031 41.640625 114.183594 41.191406 112.414062 40.707031 C 111.84375 40.554688 111.210938 40.425781 110.757812 40.082031 C 109.671875 39.230469 108.628906 39.546875 107.527344 39.960938 C 107.230469 40.03125 106.929688 40.066406 106.625 40.058594 C 106.820312 39.777344 107.050781 39.527344 107.320312 39.3125 C 107.703125 39.089844 108.152344 38.996094 108.628906 38.683594 C 107.425781 38.25 106.210938 37.816406 104.988281 37.378906 C 106.519531 36.796875 107.734375 37.582031 109.109375 38.199219 L 108.109375 35.078125 L 108.308594 34.929688 C 108.515625 35.09375 108.785156 35.230469 108.910156 35.429688 C 109.105469 35.777344 109.253906 36.144531 109.351562 36.53125 C 109.90625 38.480469 112.058594 40.058594 114.078125 40.144531 C 114.824219 40.171875 115.558594 40.558594 116.304688 40.746094 C 117.246094 40.992188 118.199219 41.1875 119.136719 41.445312 C 119.953125 41.664062 120.730469 41.574219 121.472656 41.175781 C 122.675781 40.621094 124 40.332031 125.28125 39.972656 C 126.039062 39.753906 126.816406 39.589844 127.734375 39.371094 C 126.273438 38.644531 124.90625 38.066406 123.636719 37.316406 C 119.21875 34.710938 114.839844 32.039062 110.4375 29.414062 C 107.582031 27.710938 104.746094 25.960938 101.820312 24.382812 C 100.394531 23.613281 98.777344 23.578125 97.109375 23.734375 C 94.671875 23.957031 92.558594 24.917969 90.417969 25.949219 C 87.929688 27.171875 85.296875 27.734375 82.527344 27.640625 C 82.070312 27.640625 81.621094 27.519531 81.039062 27.4375 C 81.617188 26.792969 82.03125 26.148438 82.609375 25.722656 C 84.320312 24.457031 86.335938 23.957031 88.410156 23.75 C 90.484375 23.542969 92.554688 23.480469 94.617188 23.28125 C 95.890625 23.15625 97.148438 22.898438 98.578125 22.679688 C 97.109375 22.054688 95.757812 21.449219 94.378906 20.902344 C 89.769531 19.0625 84.996094 17.898438 80.058594 17.414062 C 78.621094 17.277344 77.171875 17.253906 75.730469 17.15625 C 74.175781 17.050781 72.929688 17.703125 71.820312 18.691406 C 70.300781 20.046875 69.1875 21.679688 68.476562 23.589844 C 67.230469 26.789062 64.714844 28.40625 61.226562 29.101562 C 61.277344 28.652344 61.371094 28.214844 61.507812 27.785156 C 62.136719 26.367188 63.289062 25.394531 64.46875 24.453125 C 66.273438 22.996094 68.046875 21.5 69.546875 19.683594 C 70.296875 18.78125 71.378906 18.144531 72.253906 17.21875 C 70.980469 17.34375 69.683594 17.382812 68.421875 17.617188 C 65.230469 18.21875 62.046875 18.886719 58.863281 19.542969 C 58.320312 19.660156 57.824219 19.886719 57.375 20.222656 C 56.929688 20.554688 56.570312 20.964844 56.296875 21.453125 C 55.511719 22.734375 54.730469 24.046875 53.378906 24.8125 C 52.707031 25.199219 51.925781 25.398438 51.195312 25.6875 C 51 25.765625 50.808594 25.871094 50.566406 25.988281 C 50.058594 25.230469 50.394531 24.453125 50.691406 23.769531 C 50.988281 23.082031 51.519531 22.453125 52 21.71875 C 50.679688 22.179688 49.402344 22.65625 48.101562 23.0625 C 47.4375 23.265625 46.757812 23.398438 46.066406 23.457031 C 45.367188 23.523438 44.914062 23.089844 44.597656 22.496094 C 44.277344 21.898438 44.523438 21.527344 44.871094 21.070312 C 46.074219 19.496094 47.714844 19.371094 49.46875 19.597656 C 50.820312 19.769531 52.175781 20.003906 53.519531 20.199219 L 53.570312 20.007812 L 48.398438 17.679688 C 48.398438 17.179688 49.125 16.527344 50.085938 16.355469 C 51.113281 16.195312 52.074219 16.371094 52.976562 16.882812 C 53.863281 17.351562 54.714844 17.867188 55.585938 18.351562 C 56.148438 18.671875 56.75 18.855469 57.394531 18.910156 C 58.035156 18.960938 58.660156 18.878906 59.265625 18.652344 C 60.808594 18.144531 62.382812 17.75 63.867188 17.324219 C 63.082031 16.988281 62.1875 16.660156 61.34375 16.226562 C 60.085938 15.574219 58.855469 14.859375 57.632812 14.144531 C 57.429688 13.980469 57.261719 13.785156 57.125 13.566406 C 57.316406 13.386719 57.535156 13.25 57.777344 13.148438 C 58.722656 12.953125 59.664062 12.980469 60.59375 13.238281 C 61.527344 13.496094 62.347656 13.953125 63.058594 14.605469 C 63.09375 14.636719 63.132812 14.671875 63.167969 14.707031 C 64.757812 16.402344 66.621094 16.988281 68.972656 16.578125 C 71.101562 16.210938 73.300781 16.238281 75.46875 16.085938 C 75.46875 16.085938 75.492188 16.019531 75.46875 16.003906 C 74.011719 15.003906 72.585938 13.9375 71.0625 13.039062 C 69.96875 12.453125 68.832031 11.957031 67.660156 11.554688 C 66.347656 11.050781 65.164062 10.410156 64.402344 9.171875 C 64.34375 9.070312 64.324219 8.964844 64.351562 8.847656 C 65.984375 9.875 67.515625 11.082031 69.578125 11.335938 C 68.230469 9.714844 66.796875 8.203125 66.183594 6.175781 L 66.339844 6.046875 L 69.277344 9.382812 L 69.433594 9.324219 L 68.488281 4.523438 L 68.734375 4.417969 C 68.953125 4.800781 69.285156 5.160156 69.378906 5.570312 C 69.679688 6.929688 69.886719 8.304688 70.140625 9.671875 C 70.210938 10.03125 70.324219 10.386719 70.460938 10.910156 C 71.0625 9.316406 71.683594 7.917969 72.121094 6.472656 C 72.265625 5.988281 71.984375 5.371094 71.859375 4.820312 C 71.746094 4.445312 71.667969 4.066406 71.621094 3.675781 C 72.484375 4.027344 72.6875 4.804688 72.828125 5.570312 C 72.996094 6.433594 72.710938 7.234375 72.371094 8.035156 C 71.964844 9.019531 71.613281 10.023438 71.308594 11.042969 C 71.253906 11.332031 71.324219 11.585938 71.515625 11.804688 C 73.339844 13.539062 75.359375 15.03125 77.703125 15.976562 C 78.558594 16.320312 79.550781 16.382812 80.484375 16.46875 C 84.9375 16.921875 89.261719 17.929688 93.457031 19.5 C 99.320312 21.628906 104.699219 24.703125 109.972656 27.984375 C 110.15625 28.09375 110.339844 28.195312 110.671875 28.382812 C 109.597656 27.039062 108.566406 25.878906 107.683594 24.628906 C 106.503906 22.984375 105.421875 21.269531 104.289062 19.59375 C 103.363281 18.226562 102.40625 16.882812 100.828125 16.171875 C 100.457031 16.003906 100.164062 15.90625 99.835938 16.207031 C 99.75 16.296875 99.648438 16.363281 99.535156 16.40625 C 98.851562 16.578125 98.265625 16.917969 97.777344 17.425781 C 97.289062 17.933594 96.972656 18.53125 96.824219 19.21875 C 96.75 19.453125 96.660156 19.679688 96.550781 19.898438 L 96.191406 19.597656 C 96.113281 18.644531 96.414062 17.828125 97.09375 17.148438 C 97.695312 16.515625 98.539062 16.09375 99.316406 15.554688 C 98.519531 15.214844 97.769531 15.386719 97.066406 15.796875 C 96.464844 16.148438 95.902344 16.578125 95.3125 16.949219 C 94.941406 17.199219 94.535156 17.347656 94.09375 17.394531 C 93.648438 17.441406 93.222656 17.378906 92.808594 17.210938 C 92.554688 17.0625 92.328125 16.878906 92.125 16.667969 C 93.113281 16.558594 94.050781 16.613281 94.867188 16.316406 C 95.683594 16.023438 96.375 15.382812 97.136719 14.6875 C 96.355469 14.6875 95.574219 14.6875 94.792969 14.6875 C 93.910156 14.707031 93.027344 14.730469 92.304688 14.109375 C 92.058594 13.871094 91.890625 13.585938 91.804688 13.25 C 92.957031 13.808594 94.089844 14.191406 95.417969 13.851562 C 94.304688 13.078125 93.007812 12.511719 92.46875 11.097656 C 94.246094 12.175781 95.863281 13.535156 98.054688 13.914062 L 95.367188 11.230469 L 95.5 11.015625 C 95.78125 11.105469 96.132812 11.121094 96.328125 11.316406 C 97.132812 12.027344 97.875 12.792969 98.5625 13.617188 C 99.117188 14.320312 99.589844 14.960938 100.558594 15.167969 C 101.109375 15.285156 101.578125 15.769531 102.207031 16.175781 L 99.671875 10.507812 L 99.878906 10.40625 L 100.441406 11.09375 C 100.484375 10.640625 100.554688 10.1875 100.652344 9.742188 C 100.789062 9.363281 100.949219 9 101.136719 8.648438 L 101.457031 8.71875 C 101.460938 9.050781 101.433594 9.382812 101.375 9.710938 C 100.933594 11.292969 101.324219 12.6875 102.277344 14.03125 C 102.554688 13.105469 102.398438 12.070312 103.4375 11.371094 C 103.324219 13.035156 102.597656 14.636719 103.765625 16.105469 C 104.066406 15.222656 104.253906 14.320312 105.050781 13.777344 L 105.289062 13.863281 C 105.175781 14.28125 105.039062 14.695312 104.878906 15.097656 C 104.167969 16.644531 104.402344 18.0625 105.5 19.59375 C 105.464844 18.96875 105.472656 18.347656 105.519531 17.722656 C 105.609375 17.191406 105.808594 16.707031 106.121094 16.265625 C 106.179688 18.121094 105.886719 19.972656 106.992188 21.625 C 107.996094 23.128906 108.960938 24.636719 110.074219 26.113281 C 109.316406 23.636719 108.238281 21.148438 111.914062 19.867188 C 111.980469 20.15625 112.003906 20.445312 111.976562 20.742188 C 111.628906 21.980469 111.121094 23.1875 110.890625 24.449219 C 110.777344 25.097656 110.8125 25.738281 110.992188 26.371094 C 111.167969 27.003906 111.476562 27.566406 111.90625 28.0625 C 113.214844 29.558594 114.730469 30.800781 116.457031 31.792969 C 118.332031 32.914062 120.097656 34.21875 121.984375 35.3125 C 126.117188 37.757812 130.496094 39.625 135.117188 40.925781 C 139.007812 41.964844 142.960938 42.476562 146.984375 42.460938 C 147.101562 42.441406 147.210938 42.40625 147.316406 42.355469 C 145.890625 41.882812 144.542969 41.492188 143.234375 40.992188 C 140.972656 40.125 139.304688 38.644531 138.636719 36.230469 C 138.566406 35.972656 138.636719 35.675781 138.554688 35.417969 C 138.429688 35.121094 138.28125 34.839844 138.105469 34.570312 C 138.441406 34.574219 138.777344 34.605469 139.109375 34.664062 C 140.445312 35.03125 141.367188 35.996094 142.308594 36.929688 C 143.621094 38.234375 144.898438 39.574219 146.273438 40.808594 C 147.257812 41.691406 148.53125 41.832031 149.835938 41.929688 C 154.351562 42.273438 158.566406 41.027344 162.78125 39.640625 C 167.003906 38.222656 170.984375 36.304688 174.730469 33.890625 C 175.558594 33.371094 176.355469 32.804688 177.121094 32.199219 C 176.015625 32.40625 174.925781 32.722656 173.808594 32.800781 C 172.042969 32.949219 170.273438 32.992188 168.5 32.929688 C 167.027344 32.863281 165.882812 33.140625 165.109375 34.515625 C 164.464844 35.671875 163.71875 36.785156 162.402344 37.316406 C 162.019531 37.46875 161.632812 37.617188 161.195312 37.789062 L 160.710938 37.34375 C 160.808594 37.042969 160.910156 36.742188 160.988281 36.441406 C 161.132812 35.945312 161.371094 35.5 161.703125 35.105469 C 162.035156 34.707031 162.433594 34.398438 162.898438 34.171875 C 163.742188 33.707031 164.558594 33.183594 165.523438 32.605469 C 164.441406 32.277344 163.523438 32.039062 162.632812 31.71875 C 161.515625 31.355469 160.429688 30.921875 159.371094 30.414062 C 158.0625 29.730469 156.695312 29.808594 155.34375 29.945312 C 154.160156 30.046875 153.375 31.148438 153.320312 32.585938 C 153.335938 33.109375 153.394531 33.625 153.492188 34.140625 C 153.5625 34.507812 153.566406 34.878906 153.511719 35.253906 C 152.363281 33.996094 152.476562 32.542969 152.8125 30.964844 C 152.320312 31.609375 151.839844 32.265625 151.328125 32.894531 C 150.820312 33.527344 150.316406 34.132812 149.761719 34.703125 C 149.617188 34.847656 149.277344 34.800781 149.023438 34.839844 C 149.109375 34.621094 149.214844 34.410156 149.339844 34.207031 C 149.871094 33.515625 150.421875 32.839844 150.972656 32.160156 L 152.582031 30.175781 C 152.0625 30.296875 151.558594 30.410156 151.058594 30.523438 C 150.210938 30.722656 149.375 30.96875 148.519531 31.125 C 147.863281 31.203125 147.347656 31.511719 146.96875 32.046875 C 146.339844 32.917969 145.707031 33.785156 145.058594 34.640625 C 144.828125 34.96875 144.542969 35.230469 144.199219 35.433594 C 144.464844 33.734375 145.667969 32.601562 146.609375 31.335938 C 145.824219 31 145.035156 30.660156 144.242188 30.316406 L 144.351562 29.96875 C 144.816406 30.039062 145.273438 30.140625 145.722656 30.269531 C 146.628906 30.570312 147.46875 30.644531 148.324219 30.007812 C 148.660156 29.746094 149.03125 29.578125 149.449219 29.503906 C 149.863281 29.429688 150.273438 29.457031 150.675781 29.585938 C 150.996094 29.625 151.3125 29.625 151.628906 29.585938 L 146.769531 26.621094 L 146.847656 26.394531 C 147.222656 26.40625 147.589844 26.46875 147.949219 26.585938 C 148.785156 26.980469 149.578125 27.445312 150.335938 27.972656 C 151.597656 28.902344 153.007812 29.289062 154.570312 29.140625 C 155.1875 29.101562 155.808594 29.03125 156.515625 28.96875 C 153.847656 27.300781 151.324219 25.539062 149.265625 23.15625 C 149.785156 23.457031 150.308594 23.785156 150.828125 24.109375 C 151.34375 24.429688 151.875 24.78125 152.394531 25.117188 L 152.585938 24.980469 C 151.914062 24.039062 151.410156 22.871094 150.515625 22.242188 C 149.863281 21.789062 148.710938 22.039062 147.765625 22.027344 C 146.820312 22.015625 145.839844 22.113281 144.886719 22.050781 C 144.585938 22.03125 144.324219 21.640625 144.101562 21.253906 C 145.839844 21.980469 147.472656 21.210938 149.265625 21.148438 L 147.304688 19.847656 L 147.421875 19.546875 C 147.75 19.589844 148.070312 19.667969 148.382812 19.78125 C 149.363281 20.242188 150.242188 20.855469 151.011719 21.621094 C 151.78125 22.382812 152.402344 23.253906 152.875 24.230469 C 153.535156 25.5625 154.503906 26.601562 155.785156 27.355469 C 159.175781 29.390625 162.707031 31.121094 166.667969 31.765625 C 168.171875 32 169.675781 32.066406 171.359375 32.238281 C 170.683594 30.910156 170.15625 29.773438 169.101562 28.929688 C 168.621094 28.566406 168.269531 28.101562 168.050781 27.539062 C 167.835938 26.976562 167.785156 26.398438 167.898438 25.804688 C 167.972656 25.558594 168.074219 25.324219 168.199219 25.097656 C 169.832031 25.648438 170.136719 27.054688 170.609375 28.355469 C 170.949219 29.3125 171.292969 30.269531 171.6875 31.207031 C 171.777344 31.492188 171.953125 31.710938 172.214844 31.863281 C 172.472656 32.015625 172.75 32.0625 173.042969 32 C 175.738281 31.636719 178.3125 31.011719 180.605469 29.402344 C 183.914062 27.078125 186.265625 24.019531 187.984375 20.414062 C 188.050781 20.195312 188.152344 19.992188 188.285156 19.808594 C 188.5 19.648438 188.726562 19.511719 188.96875 19.402344 C 189.027344 19.664062 189.214844 19.980469 189.125 20.167969 C 188.605469 21.335938 188.015625 22.464844 187.363281 23.5625 C 184.46875 28.128906 180.332031 31.386719 175.890625 34.320312 C 174.425781 35.28125 172.859375 36.082031 171.375 37 C 169.632812 38.082031 168.5 39.679688 167.777344 41.570312 C 167.242188 42.988281 166.839844 44.457031 166.230469 45.835938 C 165.804688 46.714844 165.277344 47.523438 164.648438 48.265625 C 164.429688 48.542969 163.945312 48.613281 163.582031 48.777344 C 163.480469 48.386719 163.21875 47.960938 163.300781 47.613281 C 163.453125 46.777344 163.730469 45.988281 164.132812 45.242188 C 165.402344 43.15625 166.78125 41.136719 168.117188 39.089844 C 168.199219 38.890625 168.332031 38.71875 168.535156 38.433594 Z M 143.1875 43.335938 C 138.546875 42.933594 134.0625 41.871094 129.730469 40.152344 C 129.546875 40.101562 129.359375 40.09375 129.171875 40.128906 C 128.4375 40.21875 127.703125 40.324219 126.96875 40.429688 C 125.65625 40.589844 124.765625 41.414062 123.773438 42.359375 C 130.324219 43.363281 136.734375 43.804688 143.1875 43.335938 Z M 82.3125 26.914062 C 85.550781 27.046875 90.5625 25.609375 92.160156 24.128906 C 88.625 24.378906 85.125 24.429688 82.3125 26.914062 Z M 52.617188 20.792969 C 52.089844 20.714844 51.746094 20.648438 51.398438 20.613281 C 50.164062 20.488281 48.929688 20.332031 47.6875 20.269531 C 47.28125 20.253906 46.890625 20.335938 46.523438 20.515625 C 46.15625 20.695312 45.855469 20.953125 45.617188 21.285156 C 45.410156 21.554688 45.234375 22.117188 45.371094 22.308594 C 45.652344 22.632812 46.007812 22.773438 46.433594 22.734375 C 48.457031 22.167969 50.449219 21.492188 52.617188 20.792969 Z M 62.179688 28.070312 C 65.167969 27.4375 67.84375 24.808594 68.109375 22.316406 C 63.925781 25.585938 62.738281 26.734375 62.179688 28.070312 Z M 139.222656 35.414062 C 139.609375 38.164062 141.757812 40.089844 145.082031 40.78125 C 142.976562 39.074219 141.679688 36.65625 139.222656 35.414062 Z M 51.160156 24.878906 C 53.269531 24.324219 54.953125 22.882812 55.335938 21.351562 C 52.480469 22.015625 51.371094 22.945312 51.160156 24.878906 Z M 49.535156 17.355469 C 51.6875 18.074219 53.445312 19.882812 56.089844 19.4375 C 54.707031 18.6875 53.484375 17.972656 52.214844 17.355469 C 51.371094 16.933594 50.46875 16.742188 49.535156 17.339844 Z M 64.207031 16.53125 C 62.511719 15.089844 61.085938 13.503906 58.703125 13.902344 C 60.480469 14.742188 61.976562 16.191406 64.207031 16.519531 Z M 122.03125 43.203125 L 121.917969 42.933594 C 121.359375 42.878906 120.652344 42.578125 120.269531 42.816406 C 119.785156 43.109375 119.390625 43.5 119.089844 43.980469 C 118.789062 44.460938 118.613281 44.984375 118.5625 45.550781 Z M 136.15625 51.242188 C 137.324219 51.230469 138.539062 49.675781 138.976562 47.597656 C 137.6875 48.542969 136.746094 49.757812 136.15625 51.242188 Z M 164.003906 47.832031 C 165.445312 46.367188 166.015625 44.523438 166.472656 42.628906 C 165.460938 44.28125 164.226562 45.824219 164.003906 47.832031 Z M 164.425781 34.171875 C 162.140625 35.402344 161.734375 35.820312 161.8125 36.765625 C 163.019531 36.332031 163.601562 35.769531 164.425781 34.171875 Z M 121.546875 41.808594 C 122.75 42.34375 123.433594 42.082031 124.21875 40.765625 C 123.28125 41.128906 122.460938 41.449219 121.546875 41.808594 Z M 111.277344 20.925781 C 110.046875 21.671875 109.722656 22.59375 110.234375 23.636719 Z M 168.773438 26.027344 L 168.496094 26.171875 C 168.496094 27.183594 169.011719 27.921875 169.738281 28.550781 L 169.925781 28.457031 Z M 168.773438 26.027344 "/></g><path style=" stroke:none;fill-rule:nonzero;fill:#ffffff;fill-opacity:1;" d="M 105.382812 13.445312 C 105.101562 14.140625 104.90625 14.875 104.660156 15.621094 C 105.113281 15.65625 105.410156 15.675781 105.707031 15.699219 C 105.945312 15.71875 106.183594 15.742188 106.574219 15.777344 C 106.746094 16.046875 106.816406 16.453125 106.113281 16.628906 C 106.054688 16.628906 105.96875 16.777344 105.976562 16.777344 C 106.527344 17.347656 105.675781 17.230469 105.621094 17.503906 C 105.957031 18.214844 107.097656 18.582031 108.109375 18.308594 C 108.441406 18.21875 109.015625 17.222656 108.988281 16.757812 C 108.957031 16.101562 108.3125 15.320312 107.976562 15.289062 C 107.976562 14.835938 108.125 14.066406 107.976562 14.003906 C 107.277344 13.703125 107.601562 13.136719 107.472656 12.707031 C 106.804688 13.046875 105.785156 12.449219 105.382812 13.445312 Z M 105.382812 13.445312 "/><path style=" stroke:none;fill-rule:nonzero;fill:#ffffff;fill-opacity:1;" d="M 105.558594 40.03125 C 105.332031 40.167969 105.148438 40.34375 105.003906 40.5625 C 104.746094 41.152344 104.519531 41.753906 104.328125 42.371094 C 105.324219 42.777344 105.996094 42.207031 106.734375 41.640625 C 106.582031 41.957031 106.40625 42.257812 106.207031 42.542969 C 106.070312 42.804688 105.964844 43.074219 105.886719 43.359375 C 105.851562 43.46875 105.945312 43.660156 105.886719 43.707031 C 105.371094 44.175781 105.585938 44.699219 105.664062 45.191406 C 106.078125 44.441406 106.917969 45.113281 107.46875 44.566406 C 106.957031 44.609375 106.542969 44.640625 106.058594 44.683594 L 106.4375 44.105469 C 106.6875 44.125 106.9375 44.125 107.1875 44.105469 C 108.34375 43.921875 108.507812 43.613281 107.984375 42.539062 C 107.8125 42.21875 107.621094 41.910156 107.410156 41.617188 C 107.496094 41.488281 107.566406 41.351562 107.625 41.210938 C 107.78125 40.570312 107.925781 39.933594 108.089844 39.21875 L 107.207031 39.996094 L 105.96875 39.015625 Z M 105.558594 40.03125 "/><path style=" stroke:none;fill-rule:nonzero;fill:#ffffff;fill-opacity:1;" d="M 106.292969 51.089844 C 105.992188 51.136719 105.742188 51.175781 105.320312 51.234375 L 105.902344 50.730469 C 105.738281 50.652344 105.625 50.550781 105.527344 50.570312 C 104.953125 50.628906 104.390625 50.753906 103.84375 50.941406 C 103.621094 51.03125 103.542969 51.480469 103.402344 51.765625 C 102.9375 52.671875 103.148438 53.152344 104.171875 53.382812 C 104.519531 53.433594 104.867188 53.457031 105.21875 53.449219 C 105.164062 53.484375 105.113281 53.519531 105.0625 53.554688 C 105.285156 53.882812 105.523438 54.207031 105.734375 54.542969 C 106.035156 55.03125 106.722656 55.09375 106.84375 54.578125 C 107.074219 53.605469 107.949219 52.703125 107.226562 51.652344 C 107.070312 51.609375 106.925781 51.519531 106.902344 51.40625 C 106.839844 51.105469 106.875 50.769531 106.792969 50.472656 C 106.769531 50.390625 106.492188 50.375 106.308594 50.335938 C 106.285156 50.335938 106.25 50.375 106.207031 50.410156 Z M 106.433594 53.464844 C 105.875 53.210938 105.691406 52.824219 106.089844 52.207031 C 106.265625 52.65625 107.082031 52.855469 106.433594 53.464844 Z M 106.433594 53.464844 "/><path style=" stroke:none;fill-rule:nonzero;fill:#ffffff;fill-opacity:1;" d="M 91.480469 14.078125 L 92.449219 14.519531 L 93.140625 13.808594 L 92.09375 12.207031 C 92.058594 12.222656 92.121094 12.167969 92.1875 12.15625 C 92.320312 12.144531 92.460938 12.15625 92.59375 12.15625 C 93.246094 12.113281 93.46875 11.839844 93.472656 11.117188 C 93.515625 10.816406 93.519531 10.515625 93.488281 10.214844 C 93.417969 9.964844 93.171875 9.570312 93.007812 9.570312 C 92.472656 9.570312 91.804688 9.570312 91.4375 9.871094 C 90.980469 10.242188 90.734375 10.902344 90.472656 11.472656 C 90.429688 11.574219 90.726562 11.902344 90.925781 12.027344 C 91.125 12.128906 91.332031 12.195312 91.554688 12.230469 L 90.207031 14.527344 C 90.835938 14.640625 91.300781 14.726562 91.792969 14.828125 L 91.382812 14.226562 Z M 91.480469 14.078125 "/><path style=" stroke:none;fill-rule:nonzero;fill:#ffffff;fill-opacity:1;" d="M 93.144531 17.734375 C 93.183594 17.261719 93.257812 16.796875 93.371094 16.339844 C 93.179688 16.304688 92.945312 16.265625 92.710938 16.222656 L 92.710938 16.066406 L 93.671875 16.066406 C 93.171875 15.621094 92.835938 15.113281 92.386719 14.980469 C 92.085938 14.890625 91.632812 15.335938 91.320312 15.503906 L 92.1875 16.304688 L 92.105469 16.476562 C 91.589844 16.15625 91.101562 16.019531 90.765625 16.648438 C 90.644531 16.878906 90.574219 17.132812 90.441406 17.355469 C 90.285156 17.625 90.089844 17.871094 89.90625 18.128906 L 89.957031 18.429688 C 90.601562 18.492188 91.292969 18.730469 91.875 18.5625 C 92.3125 18.4375 93.144531 18.664062 93.144531 17.734375 Z M 93.144531 17.734375 "/><path style=" stroke:none;fill-rule:nonzero;fill:#ffffff;fill-opacity:1;" d="M 103.988281 46.359375 C 104.121094 47.003906 103.652344 47.335938 103.5625 47.835938 C 103.511719 48.105469 103.402344 48.472656 103.527344 48.644531 C 103.710938 48.898438 104.183594 49.246094 104.347656 49.15625 C 105.050781 48.777344 105.722656 48.351562 106.363281 47.878906 C 106.425781 47.835938 106.402344 47.671875 106.433594 47.484375 C 106.179688 46.792969 106.03125 46.015625 105.101562 45.675781 C 104.222656 45.347656 103.8125 45.503906 103.988281 46.359375 Z M 103.988281 46.359375 "/><path style=" stroke:none;fill-rule:nonzero;fill:#ffffff;fill-opacity:1;" d="M 105.746094 36.980469 C 105.3125 36.492188 104.867188 36.011719 104.40625 35.542969 C 104.378906 35.511719 104.152344 35.585938 104.105469 35.660156 C 103.734375 36.476562 103.351562 37.289062 103.042969 38.128906 C 103.019531 38.398438 103.09375 38.632812 103.269531 38.835938 C 103.660156 39.351562 104.214844 39.238281 104.734375 39.089844 C 104.996094 39.003906 105.25 38.90625 105.496094 38.785156 L 106.0625 37.511719 C 105.96875 37.328125 105.863281 37.148438 105.746094 36.980469 Z M 105.746094 36.980469 "/><path style=" stroke:none;fill-rule:nonzero;fill:#ffffff;fill-opacity:1;" d="M 107.664062 33.835938 C 107.347656 33.777344 107.289062 33.835938 106.84375 34.484375 C 106.636719 34.785156 106.0625 34.859375 106.664062 35.421875 C 106.894531 35.640625 106.929688 36.140625 107.398438 36.273438 C 107.78125 36.382812 108.144531 36.542969 108.652344 36.730469 C 108.929688 35.972656 109.152344 35.203125 109.328125 34.417969 C 109.476562 33.511719 109.0625 33.074219 108.375 33.289062 C 108.109375 33.433594 107.875 33.613281 107.664062 33.835938 Z M 107.664062 33.835938 "/><path style=" stroke:none;fill-rule:nonzero;fill:#ffffff;fill-opacity:1;" d="M 153.78125 35.195312 C 153.246094 35.003906 153.054688 35.425781 152.863281 35.761719 C 152.699219 36.097656 152.554688 36.445312 152.441406 36.804688 L 153.179688 37.636719 C 153.570312 37.160156 153.910156 36.863281 154.542969 37.136719 C 154.953125 37.3125 155.46875 36.769531 155.527344 36.292969 C 155.574219 35.902344 155.683594 35.523438 155.789062 35.03125 C 155.15625 34.496094 154.429688 34.058594 153.78125 35.195312 Z M 153.78125 35.195312 "/><path style=" stroke:none;fill-rule:nonzero;fill:#ffffff;fill-opacity:1;" d="M 70.132812 3.375 C 69.585938 3.191406 69.027344 3.039062 68.460938 2.921875 C 68.375 2.902344 68.207031 3.074219 68.132812 3.195312 C 67.980469 3.457031 67.921875 3.796875 67.71875 3.992188 C 67.632812 4.058594 67.5625 4.136719 67.511719 4.230469 C 67.460938 4.324219 67.429688 4.425781 67.421875 4.53125 C 67.414062 4.636719 67.425781 4.742188 67.464844 4.84375 C 67.503906 4.945312 67.558594 5.03125 67.632812 5.109375 C 67.972656 5.511719 68.351562 5.867188 68.78125 6.175781 C 69.011719 6.257812 69.222656 6.222656 69.414062 6.074219 C 69.714844 5.339844 69.972656 4.570312 70.273438 3.726562 C 70.25 3.65625 70.230469 3.40625 70.132812 3.375 Z M 70.132812 3.375 "/><path style=" stroke:none;fill-rule:nonzero;fill:#ffffff;fill-opacity:1;" d="M 146.753906 18.476562 C 146.023438 19.789062 145.613281 19.597656 147.128906 20.550781 C 147.210938 20.601562 147.304688 20.683594 147.390625 20.679688 C 147.59375 20.679688 147.875 20.699219 147.992188 20.582031 C 148.820312 19.765625 148.957031 18.707031 148.929688 17.300781 L 147.703125 18.277344 C 147.378906 18.042969 147.066406 17.917969 146.753906 18.476562 Z M 146.753906 18.476562 "/><path style=" stroke:none;fill-rule:nonzero;fill:#ffffff;fill-opacity:1;" d="M 144.691406 20.167969 C 144.375 20.582031 143.976562 20.695312 143.539062 20.855469 C 142.636719 21.179688 142.417969 22.386719 143.179688 22.859375 C 143.558594 23.089844 144.140625 22.996094 144.476562 23.03125 C 144.59375 22.773438 144.734375 22.53125 144.902344 22.304688 C 145.46875 21.765625 145.503906 21.082031 145.394531 20.398438 C 145.328125 20.023438 144.945312 19.832031 144.691406 20.167969 Z M 144.691406 20.167969 "/><path style=" stroke:none;fill-rule:nonzero;fill:#ffffff;fill-opacity:1;" d="M 101.097656 10.671875 C 101.699219 10.953125 102.070312 10.554688 102.40625 10.109375 C 102.503906 10.011719 102.613281 9.925781 102.734375 9.855469 C 102.367188 9.273438 102.378906 9.28125 102.835938 8.714844 C 102.984375 8.535156 103.199219 8.207031 103.136719 8.097656 C 103.023438 7.90625 102.714844 7.824219 102.488281 7.707031 C 102.257812 7.589844 102.089844 7.511719 101.742188 7.339844 C 101.5 7.695312 101.179688 8.136719 100.886719 8.601562 C 100.625 9.019531 100.765625 10.519531 101.097656 10.671875 Z M 101.097656 10.671875 "/><path style=" stroke:none;fill-rule:nonzero;fill:#ffffff;fill-opacity:1;" d="M 144.707031 33.945312 C 144.089844 34.144531 143.734375 34.640625 143.835938 35.210938 C 143.929688 35.710938 144.070312 36.445312 144.964844 36.347656 C 145.230469 36.289062 145.484375 36.207031 145.734375 36.097656 C 146.378906 35.734375 146.558594 35.070312 146.703125 34.410156 C 146.71875 34.320312 146.515625 34.074219 146.476562 34.089844 C 145.894531 34.3125 145.34375 34.246094 144.832031 33.886719 C 144.816406 33.871094 144.753906 33.929688 144.707031 33.945312 Z M 144.707031 33.945312 "/><path style=" stroke:none;fill-rule:nonzero;fill:#ffffff;fill-opacity:1;" d="M 149.699219 22.203125 C 149.589844 22.160156 149.472656 22.140625 149.355469 22.144531 C 149.238281 22.152344 149.125 22.179688 149.023438 22.234375 C 148.917969 22.289062 148.828125 22.363281 148.753906 22.457031 C 148.683594 22.550781 148.632812 22.65625 148.609375 22.773438 C 148.570312 23.015625 148.496094 23.246094 148.390625 23.46875 C 148.15625 23.921875 148.898438 25.273438 149.414062 25.273438 C 149.539062 25.257812 149.644531 25.207031 149.738281 25.125 C 150.300781 24.648438 150.617188 22.714844 150.242188 22.070312 C 150.03125 22.132812 149.832031 22.25 149.699219 22.203125 Z M 149.699219 22.203125 "/><path style=" stroke:none;fill-rule:nonzero;fill:#ffffff;fill-opacity:1;" d="M 103.109375 11.066406 C 102.660156 11.574219 102.632812 12.617188 103.027344 12.996094 C 103.296875 13.246094 104.902344 13.074219 105.136719 12.714844 C 105.292969 12.394531 105.410156 12.0625 105.492188 11.71875 L 103.988281 10.515625 C 103.851562 10.640625 103.707031 10.757812 103.554688 10.867188 C 103.414062 10.941406 103.207031 10.949219 103.109375 11.066406 Z M 103.109375 11.066406 "/><path style=" stroke:none;fill-rule:nonzero;fill:#ffffff;fill-opacity:1;" d="M 64.953125 9.085938 C 65.058594 9.085938 65.203125 9.097656 65.402344 9.113281 L 65.101562 7.582031 C 64.5 7.800781 63.917969 7.882812 63.535156 8.183594 C 63.300781 8.375 63.140625 8.613281 63.054688 8.902344 C 62.96875 9.1875 62.976562 9.476562 63.070312 9.761719 C 63.222656 10.28125 64.164062 10.625 64.957031 10.46875 Z M 64.953125 9.085938 "/><path style=" stroke:none;fill-rule:nonzero;fill:#ffffff;fill-opacity:1;" d="M 145.578125 30.425781 L 145.613281 30.425781 L 145.589844 30.398438 Z M 145.578125 30.425781 "/><path style=" stroke:none;fill-rule:nonzero;fill:#ffffff;fill-opacity:1;" d="M 144.800781 29.957031 C 144.785156 29.875 144.199219 29.816406 143.925781 29.890625 C 143.023438 30.125 143.503906 31.199219 142.859375 31.578125 C 143.460938 32.265625 144.175781 32.480469 144.851562 32.082031 C 145.277344 31.824219 145.945312 31.480469 145.453125 30.71875 C 145.421875 30.664062 145.523438 30.523438 145.574219 30.417969 C 145.246094 30.414062 144.902344 30.476562 144.800781 29.957031 Z M 144.800781 29.957031 "/><g clip-rule="nonzero" clip-path="url(#2ea03f26a0)"><path style=" stroke:none;fill-rule:nonzero;fill:#ffffff;fill-opacity:1;" d="M 72.269531 2.40625 C 71.847656 2.296875 71.453125 2.078125 71.320312 2.183594 C 71.019531 2.433594 70.558594 3.023438 70.644531 3.152344 C 70.972656 3.625 71.488281 3.96875 71.945312 4.375 C 71.914062 4.375 71.730469 4.441406 71.542969 4.492188 L 72.082031 5.136719 C 72.574219 4.042969 73.285156 3.109375 73.335938 1.929688 L 73.09375 1.824219 Z M 72.269531 2.40625 "/></g><path style=" stroke:none;fill-rule:nonzero;fill:#ffffff;fill-opacity:1;" d="M 96.828125 9.425781 C 95.953125 9.425781 94.742188 10.371094 94.671875 11.1875 C 94.691406 11.609375 94.851562 11.96875 95.148438 12.269531 C 95.246094 12.378906 95.8125 12.269531 95.980469 12.089844 C 96.320312 11.699219 96.597656 11.265625 96.804688 10.789062 C 96.871094 10.648438 96.667969 10.390625 96.597656 10.1875 C 96.585938 10.136719 96.585938 10.082031 96.597656 10.03125 C 96.71875 10.03125 96.84375 10.050781 96.984375 10.058594 Z M 96.828125 9.425781 "/><path style=" stroke:none;fill-rule:nonzero;fill:#ffffff;fill-opacity:1;" d="M 96.277344 21.449219 C 97.0625 21.148438 97.222656 20.46875 97.242188 19.765625 C 97.265625 19.058594 96.726562 19.164062 96.253906 19.097656 C 95.78125 19.03125 95.492188 19.019531 95.476562 19.398438 C 95.457031 19.980469 95.089844 20.460938 95.246094 21.125 C 95.40625 21.789062 95.457031 22.027344 95.9375 21.941406 C 96.125 21.65625 96.179688 21.488281 96.277344 21.449219 Z M 96.277344 21.449219 "/><path style=" stroke:none;fill-rule:nonzero;fill:#ffffff;fill-opacity:1;" d="M 146.65625 25.851562 C 145.925781 26.042969 145.75 26.578125 145.449219 27.167969 C 145.636719 27.1875 145.75 27.203125 145.882812 27.214844 C 145.753906 27.582031 145.988281 27.515625 146.21875 27.515625 C 146.441406 27.496094 146.660156 27.515625 146.878906 27.574219 C 147.285156 27.714844 147.480469 27.785156 147.847656 27.300781 C 148.128906 26.941406 148.210938 26.539062 148.085938 26.097656 C 147.988281 25.667969 147.863281 25.25 147.703125 24.839844 C 147.339844 25.199219 147.058594 25.742188 146.65625 25.851562 Z M 146.65625 25.851562 "/><path style=" stroke:none;fill-rule:nonzero;fill:#ffffff;fill-opacity:1;" d="M 99.972656 11.0625 C 100.238281 11.015625 100.378906 10.988281 100.472656 10.96875 C 100.371094 10.585938 100.296875 10.234375 100.171875 9.894531 C 100.105469 9.710938 99.925781 9.386719 99.871094 9.402344 C 99.550781 9.488281 99.117188 9.574219 98.96875 9.8125 C 98.734375 10.277344 98.558594 10.765625 98.445312 11.273438 C 98.445312 11.308594 98.535156 11.386719 98.59375 11.433594 L 100.15625 12.683594 C 100.183594 12.035156 100.996094 11.511719 99.972656 11.0625 Z M 99.972656 11.0625 "/><path style=" stroke:none;fill-rule:nonzero;fill:#ffffff;fill-opacity:1;" d="M 149.007812 36.632812 C 148.640625 36.828125 148.429688 36.9375 148.21875 37.054688 L 148.308594 37.238281 C 148.691406 37.132812 149.058594 36.984375 149.410156 36.796875 C 149.84375 36.5 150.074219 36.089844 150.109375 35.570312 C 150.203125 34.609375 149.417969 34.261719 148.699219 33.625 L 148.34375 36.371094 Z M 149.007812 36.632812 "/><path style=" stroke:none;fill-rule:nonzero;fill:#ffffff;fill-opacity:1;" d="M 67.027344 5.132812 C 66.691406 5.582031 66.296875 5.582031 65.84375 5.328125 C 65.808594 5.304688 65.664062 5.449219 65.589844 5.527344 C 65.390625 5.742188 65.203125 5.964844 65.023438 6.167969 C 65.519531 6.542969 65.972656 6.933594 66.476562 7.246094 C 66.703125 7.292969 66.898438 7.234375 67.058594 7.070312 C 67.222656 6.558594 67.332031 6.039062 67.390625 5.503906 C 67.410156 5.398438 67.160156 5.257812 67.027344 5.132812 Z M 67.027344 5.132812 "/><path style=" stroke:none;fill-rule:nonzero;fill:#ffffff;fill-opacity:1;" d="M 144.148438 29.269531 C 144.476562 29.300781 144.773438 29.421875 145.035156 29.621094 C 145.292969 29.824219 145.480469 30.082031 145.59375 30.390625 L 146.085938 30 C 145.730469 29.640625 145.484375 29.269531 145.160156 29.097656 C 144.882812 28.964844 144.484375 29.070312 144.144531 29.070312 Z M 144.148438 29.269531 "/></g></svg>